<svg width="86" height="19" viewBox="0 0 86 19" fill="none" xmlns="http://www.w3.org/2000/svg">
<path d="M9.856 3.984L3.76 18H0.928L8.512 1.2H11.224L18.832 18H15.952L9.856 3.984ZM23.8056 6.48V18H21.1656V1.2H23.4216L30.2616 12.648L37.0056 1.2H39.2616L39.2856 18H36.6456L36.6216 6.384L30.8376 16.032H29.5896L23.8056 6.48ZM51.7915 18.216C46.6075 18.216 42.7915 14.544 42.7915 9.6C42.7915 4.656 46.6075 0.983999 51.7915 0.983999C56.9515 0.983999 60.7675 4.632 60.7675 9.6C60.7675 14.568 56.9515 18.216 51.7915 18.216ZM51.7915 15.768C55.3675 15.768 58.0075 13.152 58.0075 9.6C58.0075 6.048 55.3675 3.432 51.7915 3.432C48.1915 3.432 45.5515 6.048 45.5515 9.6C45.5515 13.152 48.1915 15.768 51.7915 15.768ZM67.0032 18H64.2672V1.2H67.0032V18ZM81.9901 12.432L85.9021 18H82.9261L79.3981 12.984C79.1341 13.008 78.8221 13.008 78.5341 13.008H74.5501V18H71.8141V10.68H78.4381C81.3421 10.68 82.8541 9.36 82.8541 7.128C82.8541 4.872 81.3421 3.576 78.4381 3.576H71.8141V1.2H78.5341C82.9261 1.2 85.6141 3.432 85.6141 7.128C85.6141 9.696 84.2941 11.568 81.9901 12.432Z" fill="black"/>
</svg>
